<svg width="863" height="723" viewBox="0 0 863 723" fill="none" xmlns="http://www.w3.org/2000/svg">
<path d="M760.845 85.8013C696.204 25.8276 604.235 37.3226 541.696 62.3116C423.976 -1.66037 378.78 16.3318 338.839 16.3318C303.628 16.3318 222.231 30.559 114.961 62.3116C35.6045 85.8013 -1.16346e-05 160.264 0 216C1.16346e-05 271.736 22.0765 268.364 67.2899 362C107.04 444.321 7.62939e-06 508.793 67.2899 597C112.669 656.485 245.086 724.663 585.133 713.168C672.574 730.66 745.813 723.397 810.245 702.531C907.47 671.045 847.582 573.49 810.245 524.109C730.889 419.155 775.843 378.532 810.245 277.217C826.537 229.238 844.122 163.066 760.845 85.8013Z" fill="#FAECF1"/>
<path d="M466 671C617.326 671 740 665.627 740 659C740 652.373 617.326 647 466 647C314.674 647 192 652.373 192 659C192 665.627 314.674 671 466 671Z" fill="#FDB6C1" fill-opacity="0.5"/>
<path d="M523.171 144.963H519.819V53.1429C519.819 46.1641 518.444 39.2536 515.774 32.806C513.103 26.3584 509.189 20.4999 504.254 15.5652C499.319 10.6304 493.461 6.71589 487.013 4.04522C480.565 1.37454 473.655 -2.42158e-05 466.676 3.19964e-10H272.143C265.164 -1.65107e-05 258.254 1.37455 251.806 4.04523C245.358 6.71591 239.5 10.6304 234.565 15.5652C229.63 20.5 225.716 26.3584 223.045 32.806C220.375 39.2536 219 46.1641 219 53.1429V556.874C219 563.853 220.375 570.764 223.045 577.211C225.716 583.659 229.63 589.517 234.565 594.452C239.5 599.387 245.358 603.301 251.806 605.972C258.254 608.643 265.164 610.017 272.143 610.017H466.676C473.655 610.017 480.565 608.643 487.013 605.972C493.461 603.301 499.319 599.387 504.254 594.452C509.189 589.517 513.103 583.659 515.774 577.211C518.444 570.764 519.819 563.853 519.819 556.874V210.322H523.171V144.963Z" fill="#3F3D56"/>
<path d="M468.156 14H442.763C443.931 16.863 444.377 19.9692 444.061 23.045C443.746 26.1208 442.679 29.0719 440.954 31.6381C439.229 34.2044 436.9 36.3072 434.171 37.7612C431.443 39.2152 428.398 39.9758 425.306 39.976H313.861C310.769 39.9758 307.724 39.2152 304.996 37.7612C302.267 36.3072 299.938 34.2044 298.213 31.6381C296.488 29.0719 295.421 26.1208 295.106 23.045C294.79 19.9692 295.236 16.863 296.404 14H272.687C267.475 14 262.314 15.0265 257.499 17.0209C252.684 19.0154 248.309 21.9386 244.624 25.6239C240.939 29.3091 238.015 33.6841 236.021 38.4991C234.027 43.3141 233 48.4748 233 53.6865V556.679C233 561.891 234.027 567.051 236.021 571.866C238.015 576.681 240.939 581.056 244.624 584.742C248.309 588.427 252.684 591.35 257.499 593.344C262.314 595.339 267.475 596.365 272.687 596.365H468.156C473.368 596.365 478.529 595.339 483.344 593.344C488.159 591.35 492.534 588.427 496.219 584.742C499.904 581.056 502.828 576.681 504.822 571.866C506.816 567.051 507.843 561.891 507.843 556.679V53.6865C507.843 48.4748 506.816 43.3141 504.822 38.4991C502.828 33.6841 499.904 29.3091 496.219 25.6239C492.534 21.9387 488.159 19.0154 483.344 17.021C478.529 15.0265 473.368 14 468.156 14Z" fill="white"/>
<path d="M380.821 566.076C363.548 566.084 346.797 560.155 333.375 549.282C319.954 538.409 310.677 523.254 307.1 506.355C303.523 489.456 305.863 471.842 313.727 456.463C321.592 441.084 334.504 428.876 350.299 421.884C366.094 414.893 383.812 413.542 400.484 418.06C417.156 422.577 431.768 432.688 441.873 446.697C451.977 460.707 456.959 477.763 455.984 495.009C455.009 512.254 448.136 528.641 436.517 541.422L452.246 559.054L444.397 562.383C432.255 567.534 420.373 562.522 413.703 558.522C403.454 563.491 392.212 566.074 380.821 566.076ZM380.821 427.818C371.215 427.821 361.737 430.02 353.112 434.247C344.486 438.473 336.94 444.616 331.052 452.205C325.163 459.794 321.087 468.629 319.136 478.035C317.184 487.44 317.409 497.167 319.792 506.473C322.175 515.778 326.654 524.416 332.887 531.725C339.119 539.034 346.94 544.822 355.752 548.647C364.563 552.471 374.133 554.23 383.728 553.79C393.324 553.35 402.692 550.722 411.117 546.107L414.477 544.261L417.601 546.484C421.171 549.08 425.225 550.935 429.524 551.939L419.626 540.844L423.965 536.767C430.267 530.896 435.286 523.785 438.706 515.881C442.127 507.976 443.875 499.45 443.84 490.837C443.821 474.129 437.176 458.111 425.361 446.297C413.547 434.483 397.529 427.837 380.821 427.818Z" fill="#E6E6E6"/>
<path d="M449.95 490.837C449.944 475.692 444.963 460.969 435.773 448.932C426.582 436.894 413.692 428.209 399.085 424.212C384.477 420.216 368.961 421.129 354.922 426.811C340.884 432.493 329.101 442.629 321.386 455.661C313.671 468.694 310.45 483.899 312.22 498.94C313.99 513.981 320.652 528.024 331.182 538.909C341.712 549.794 355.526 556.919 370.5 559.187C385.474 561.455 400.778 558.741 414.059 551.462C418.837 554.862 430.495 561.644 442.011 556.759L428.149 541.219C435.04 534.762 440.531 526.959 444.281 518.292C448.031 509.625 449.961 500.28 449.95 490.837Z" fill="white"/>
<path d="M394.614 476.703H345.217V481.29H394.614V476.703Z" fill="#FF7F90"/>
<path d="M431.311 492.571H345.217V497.158H431.311V492.571Z" fill="#E6E6E6"/>
<path d="M431.227 508.44H345.217V513.027H431.227V508.44Z" fill="#E6E6E6"/>
<path d="M380.821 231.638C363.548 231.646 346.797 225.717 333.375 214.844C319.954 203.971 310.677 188.815 307.1 171.916C303.523 155.018 305.863 137.403 313.727 122.024C321.592 106.646 334.504 94.4376 350.299 87.4459C366.094 80.4543 383.812 79.104 400.484 83.6215C417.156 88.1389 431.768 98.2496 441.873 112.259C451.977 126.268 456.959 143.325 455.984 160.571C455.009 177.816 448.136 194.203 436.517 206.984L452.246 224.616L444.397 227.945C432.255 233.095 420.373 228.084 413.703 224.084C403.454 229.053 392.212 231.635 380.821 231.638ZM380.821 93.3799C371.215 93.3829 361.737 95.5817 353.112 99.8083C344.486 104.035 336.94 110.178 331.052 117.767C325.163 125.356 321.087 134.191 319.136 143.596C317.184 153.002 317.409 162.729 319.792 172.034C322.175 181.34 326.654 189.977 332.887 197.287C339.119 204.596 346.94 210.384 355.752 214.208C364.563 218.033 374.133 219.792 383.728 219.352C393.324 218.911 402.692 216.284 411.117 211.669L414.477 209.822L417.601 212.045C421.171 214.642 425.225 216.497 429.524 217.5L419.626 206.405L423.965 202.328C430.267 196.458 435.286 189.347 438.706 181.442C442.127 173.538 443.875 165.011 443.84 156.399C443.821 139.691 437.176 123.673 425.361 111.859C413.547 100.044 397.529 93.3988 380.821 93.3799Z" fill="#E6E6E6"/>
<path d="M449.95 156.399C449.944 141.254 444.963 126.531 435.773 114.493C426.582 102.456 413.692 93.7708 399.085 89.7741C384.477 85.7773 368.961 86.6902 354.922 92.3723C340.884 98.0544 329.101 108.191 321.386 121.223C313.671 134.255 310.45 149.461 312.22 164.502C313.99 179.543 320.652 193.586 331.182 204.471C341.712 215.356 355.526 222.48 370.5 224.748C385.474 227.016 400.778 224.302 414.059 217.024C418.837 220.424 430.495 227.205 442.011 222.32L428.149 206.781C435.04 200.324 440.531 192.52 444.281 183.854C448.031 175.187 449.961 165.842 449.95 156.399Z" fill="white"/>
<path d="M394.614 142.264H345.217V146.852H394.614V142.264Z" fill="#FF7F90"/>
<path d="M431.311 158.133H345.217V162.72H431.311V158.133Z" fill="#E6E6E6"/>
<path d="M431.227 174.001H345.217V178.589H431.227V174.001Z" fill="#E6E6E6"/>
<path d="M476.574 238.064C482.592 238.064 487.47 233.186 487.47 227.168C487.47 221.15 482.592 216.271 476.574 216.271C470.556 216.271 465.677 221.15 465.677 227.168C465.677 233.186 470.556 238.064 476.574 238.064Z" fill="#E6E6E6"/>
<path d="M476.574 572.503C482.592 572.503 487.47 567.624 487.47 561.606C487.47 555.588 482.592 550.71 476.574 550.71C470.556 550.71 465.677 555.588 465.677 561.606C465.677 567.624 470.556 572.503 476.574 572.503Z" fill="#E6E6E6"/>
<path d="M251.931 389.657C245.003 393.812 232.66 399.018 220.046 393.668L211.893 390.21L228.232 371.894C215.193 357.518 207.98 338.799 208 319.391C208.02 299.982 215.271 281.278 228.339 266.929C241.407 252.58 259.353 243.615 278.675 241.785C297.996 239.954 317.307 245.39 332.836 257.031C348.366 268.671 359.001 285.681 362.664 304.74C366.328 323.799 362.757 343.54 352.65 360.108C342.543 376.677 326.624 388.884 308.001 394.348C289.378 399.812 269.387 398.139 251.931 389.657V389.657ZM220.625 319.347C220.589 328.293 222.404 337.151 225.958 345.362C229.511 353.573 234.725 360.959 241.271 367.058L245.778 371.293L235.497 382.818C239.962 381.776 244.173 379.849 247.882 377.152L251.127 374.843L254.618 376.76C267.2 383.66 281.701 386.234 295.89 384.087C310.079 381.94 323.169 375.191 333.147 364.878C343.126 354.565 349.439 341.259 351.117 327.007C352.794 312.755 349.743 298.347 342.432 285.999C335.121 273.651 323.955 264.046 310.653 258.664C297.35 253.281 282.648 252.418 268.807 256.207C254.966 259.997 242.754 268.228 234.048 279.636C225.343 291.044 220.626 304.997 220.625 319.347V319.347Z" fill="#FF7F90"/>
<path d="M214.278 319.347C214.284 303.615 219.458 288.32 229.005 275.816C238.552 263.311 251.942 254.289 267.116 250.138C282.291 245.986 298.409 246.934 312.992 252.837C327.575 258.739 339.814 269.269 347.829 282.807C355.843 296.344 359.189 312.14 357.35 327.764C355.511 343.388 348.591 357.976 337.653 369.283C326.715 380.591 312.365 387.991 296.81 390.347C281.255 392.703 265.357 389.884 251.561 382.323C246.597 385.855 234.488 392.9 222.525 387.825L236.925 371.683C229.766 364.976 224.063 356.869 220.167 347.866C216.271 338.864 214.267 329.156 214.278 319.347Z" fill="white"/>
<path opacity="0.1" d="M345.205 318.984C345.204 301.038 338.483 283.743 326.367 270.504C314.251 257.265 297.617 249.043 279.741 247.456C281.833 247.273 283.949 247.174 286.088 247.174C305.129 247.18 323.388 254.749 336.85 268.215C350.312 281.681 357.874 299.943 357.874 318.984C357.874 338.025 350.312 356.286 336.85 369.753C323.388 383.219 305.129 390.788 286.088 390.794C283.952 390.794 281.84 390.694 279.751 390.511C297.625 388.922 314.256 380.698 326.37 367.46C338.485 354.222 345.204 336.928 345.205 318.984Z" fill="black"/>
<path d="M296.167 304.664H244.854V309.429H296.167V304.664Z" fill="#FF7F90"/>
<path d="M334.288 321.148H244.854V325.913H334.288V321.148Z" fill="#FF7F90"/>
<path d="M334.2 337.632H244.854V342.397H334.2V337.632Z" fill="#FF7F90"/>
<path fill-rule="evenodd" clip-rule="evenodd" d="M764.747 526.026C763.806 527.652 762.968 529.311 762.227 530.994C762.201 527.527 762.393 524.034 762.916 520.494C763.811 514.429 765.178 508.396 766.462 502.373C767.385 498.044 767.327 490.269 770.83 486.82C771.791 486.074 772.022 487.537 772.022 488.172C772.034 488.306 772.02 485.581 771.087 486.056C765.545 488.918 763.749 497.919 761.974 502.425C759.386 509.003 757.183 515.727 756.276 522.571C756.047 524.3 755.922 526.028 755.893 527.753C755.705 527.292 755.528 526.827 755.332 526.367C752.133 518.864 747.816 511.543 742.432 504.792C741.107 503.131 724.442 486.739 723.138 489.248C723.267 489.612 723.536 489.915 723.947 490.155C723.971 490.182 723.972 490.167 723.958 490.127C724.936 491.707 727.719 494.149 728.586 495.534C730.767 499.021 732.462 502.72 734.185 506.349C737.825 514.018 741.202 521.764 744.475 529.526C745.237 531.334 746.032 533.132 746.842 534.924C738.487 522.874 727.342 511.934 712 505.671C717.24 508.337 720.676 513.353 724.214 517.193C728.483 521.825 732.978 526.333 737.254 530.96C742.298 536.418 748.232 542.166 753.084 548.206C757.783 558.072 762.349 567.948 765.168 578.319C764.013 574.735 765.077 569.784 764.88 566.023C764.723 563.03 764.373 560.062 763.894 557.098C764.486 558.435 764.997 559.772 765.228 561.016C765.017 558.93 764.774 556.857 764.512 554.794C765.183 552.863 765.842 551.061 766.287 549.576C768.569 541.962 771.285 534.479 774.984 527.185C778.407 520.438 782.333 513.777 786.611 507.319C788.607 504.308 790.63 501.308 792.64 498.304C793.956 496.336 795.209 493.187 797.041 491.302C785.199 502.129 772.26 513.034 764.747 526.026Z" fill="#FF7F90"/>
<path fill-rule="evenodd" clip-rule="evenodd" d="M729.544 537.319C729.544 561.542 731.456 581.179 757.114 581.179C782.772 581.179 784.684 561.542 784.684 537.319" fill="#2A2752"/>
<path fill-rule="evenodd" clip-rule="evenodd" d="M591 397L542.918 524.227L509.217 618H490L536.326 397L591 397Z" fill="#2A2752"/>
<path fill-rule="evenodd" clip-rule="evenodd" d="M602.883 397C603.406 440.654 603.028 499.427 604.246 502.149C605.058 503.963 630.309 524.632 680 564.157L670.095 581C611.101 542.956 580.095 521.399 577.079 516.331C572.555 508.728 549.826 438.763 538 397H602.883Z" fill="#2A2752"/>
<path fill-rule="evenodd" clip-rule="evenodd" d="M697.426 575.491L680.696 562.759L667.198 578.846C666.159 590.973 662.144 604.574 655.152 619.649L658.216 622.22L682.642 593.11L689.466 581.866L690.998 583.152L697.426 575.491Z" fill="#2A2752"/>
<path fill-rule="evenodd" clip-rule="evenodd" d="M511 636L510 615H489C479.042 622 466.042 627.667 450 632V636H488L501 634V636H511Z" fill="#2A2752"/>
<path fill-rule="evenodd" clip-rule="evenodd" d="M568.976 285.47C573.584 280.061 576.702 273.433 576.181 266.006C574.68 244.605 544.889 249.313 539.095 260.114C533.3 270.915 533.988 298.313 541.478 300.244C544.464 301.013 550.827 299.128 557.303 295.224L553.238 323.98H577.238L568.976 285.47Z" fill="#FFD8C7"/>
<path fill-rule="evenodd" clip-rule="evenodd" d="M556.103 268.369C555.184 281.166 552.754 287.565 548.812 287.565C542.899 287.565 537.883 283.811 535.288 283.811C533.397 283.811 533.819 286.178 535.073 287.933C536.107 289.38 541.144 290.776 541.144 293.02C541.144 295.265 537.164 293.528 537.164 294.859C537.164 297.061 536.465 301.201 540.287 301.201C544.154 301.201 555.243 299.792 557.143 294.052C558.37 290.347 559.163 282.671 559.522 271.022C559.757 270.994 559.996 270.98 560.238 270.98C563.552 270.98 566.238 273.666 566.238 276.98C566.238 278.662 565.546 280.183 564.43 281.272C565.819 283.232 567.375 285.279 569.157 287.391C575.855 283.373 580.826 271.609 574.277 260.308C572.467 254.772 568.37 251.815 563.531 250.442C559.61 248.803 555.541 248.618 552.106 249.601C545.372 250.178 539.359 252.232 537.655 253.451C537.655 259.826 538.89 261.718 549.441 261.551C552.034 262.92 554.027 265.278 556.103 268.369Z" fill="#2A2752"/>
<path fill-rule="evenodd" clip-rule="evenodd" d="M494.666 384.617L458.431 368.704C452.084 362.379 445.954 357.572 440.043 354.282C438.276 353.719 435.256 353.549 438.478 358.255C441.7 362.961 444.877 368.056 443.59 369.705C442.302 371.355 438.573 369.534 437.1 372.216C436.117 374.004 442.404 376.143 455.958 378.633L483.096 399.439L494.666 384.617ZM641.158 389L620.666 393.066C641.274 431.471 652.325 451.826 653.821 454.13C657.186 459.315 654.046 468.817 652.887 473.821C660.161 475.515 657.292 464.565 666.499 466.851C674.902 468.938 682.027 474.293 689.862 467.071C690.825 466.183 691.531 463.407 688.246 461.984C680.063 458.437 667.974 451.796 666.014 449.218C663.34 445.702 655.055 425.63 641.158 389Z" fill="#FFD8C7"/>
<path fill-rule="evenodd" clip-rule="evenodd" d="M564.971 312.332L556.324 310.849C537.49 329.119 529.804 373.012 517.252 378.822C505.385 384.316 488.562 379 468.566 371.822L462.442 385.505C480.611 405.161 519.317 421.767 535.006 412.287C560.089 397.13 565.88 342.994 564.971 312.332Z" fill="#FF7F90"/>
<path fill-rule="evenodd" clip-rule="evenodd" d="M602.666 421C567.994 421 542.49 421 526.154 421C522.658 421 523.317 415.952 523.822 413.404C529.655 384.004 552.425 352.312 552.425 310.461L574.494 307C592.748 336.358 599.061 372.505 602.666 421Z" fill="#F1F9FC"/>
<path fill-rule="evenodd" clip-rule="evenodd" d="M610.297 391.233C625.895 419.368 639.005 439.623 649.628 452L665.666 448.859C655.335 384.791 625.419 337.504 575.918 307H575.666L567.179 307C547.367 374.537 541.905 419.537 550.794 442H619.666C618.576 425.563 615.082 408.181 610.297 391.233H610.297Z" fill="#FF7F90"/>
<path d="M650 188C672.644 188 691 169.644 691 147C691 124.356 672.644 106 650 106C627.356 106 609 124.356 609 147C609 169.644 627.356 188 650 188Z" fill="#FF7F90"/>
<path d="M650 116.83C651.282 116.83 652.321 115.791 652.321 114.509C652.321 113.228 651.282 112.189 650 112.189C648.718 112.189 647.679 113.228 647.679 114.509C647.679 115.791 648.718 116.83 650 116.83Z" fill="white"/>
<path d="M617.509 149.321C618.791 149.321 619.83 148.282 619.83 147C619.83 145.718 618.791 144.679 617.509 144.679C616.228 144.679 615.189 145.718 615.189 147C615.189 148.282 616.228 149.321 617.509 149.321Z" fill="white"/>
<path d="M682.491 149.321C683.772 149.321 684.811 148.282 684.811 147C684.811 145.718 683.772 144.679 682.491 144.679C681.209 144.679 680.17 145.718 680.17 147C680.17 148.282 681.209 149.321 682.491 149.321Z" fill="white"/>
<path d="M650 181.811C651.282 181.811 652.321 180.772 652.321 179.491C652.321 178.209 651.282 177.17 650 177.17C648.718 177.17 647.679 178.209 647.679 179.491C647.679 180.772 648.718 181.811 650 181.811Z" fill="white"/>
<path fill-rule="evenodd" clip-rule="evenodd" d="M650 119.151L651.547 146.226H648.453L650 119.151Z" fill="white"/>
<path fill-rule="evenodd" clip-rule="evenodd" d="M663.691 160.691L649.469 148.657L651.657 146.469L663.691 160.691Z" fill="white"/>
<path d="M650 150.094C651.709 150.094 653.094 148.709 653.094 147C653.094 145.291 651.709 143.906 650 143.906C648.291 143.906 646.906 145.291 646.906 147C646.906 148.709 648.291 150.094 650 150.094Z" fill="white"/>
<ellipse cx="754.5" cy="595.5" rx="26.5" ry="3.5" fill="#FF7F90" fill-opacity="0.5"/>
</svg>
