<svg width="548" height="497" viewBox="0 0 548 497" fill="none" xmlns="http://www.w3.org/2000/svg">
<path d="M408 227.5C408 341.547 316.666 434 204 434C91.3339 434 0 341.547 0 227.5C0 113.453 91.3339 21 204 21C316.666 21 408 113.453 408 227.5Z" fill="#FFBCBC"/>
<path fill-rule="evenodd" clip-rule="evenodd" d="M465.972 149.707C470.592 146.743 474.321 142.622 475.431 137.232C478.627 121.701 454.9 119.319 448.278 125.895C441.656 132.472 436.62 152.118 441.953 154.935C444.08 156.058 449.326 155.94 455.069 154.407L446.124 174.104L464.469 178.725L465.972 149.707Z" fill="#B28B67"/>
<path fill-rule="evenodd" clip-rule="evenodd" d="M459.602 135.05C456.302 143.988 453.145 148.077 450.132 147.318C445.613 146.179 442.54 142.54 440.557 142.041C439.111 141.676 438.954 143.443 439.556 144.934C440.052 146.165 443.619 148.128 443.163 149.727C442.708 151.325 440.018 149.322 439.748 150.27C439.301 151.839 437.926 154.652 440.847 155.388C443.804 156.133 452.566 157.264 455.184 153.542C456.873 151.14 459.038 145.825 461.677 137.598C461.862 137.624 462.048 137.659 462.233 137.706C464.766 138.344 466.274 140.774 465.601 143.135C465.26 144.333 464.422 145.282 463.348 145.843C464.012 147.506 464.785 149.264 465.719 151.112C471.655 149.539 477.842 142.118 475.131 132.809C474.871 128.518 472.339 125.623 468.919 123.713C466.255 121.79 463.182 120.875 460.357 120.914C455.092 120.029 450.079 120.333 448.529 120.874C447.235 125.414 447.795 126.999 455.894 128.912C457.598 130.386 458.643 132.449 459.602 135.05Z" fill="#191847"/>
<path fill-rule="evenodd" clip-rule="evenodd" d="M455.536 238.777L416.695 330.834L390.644 408.66H380.358L420.184 238.777L455.536 238.777Z" fill="#997659"/>
<path fill-rule="evenodd" clip-rule="evenodd" d="M463.358 238.777C463.771 271.127 469.803 314.68 470.767 316.696C471.409 318.041 493.588 335.136 537.302 367.983L530.217 375.083C478.638 346.921 451.655 330.962 449.268 327.206C445.688 321.571 434.032 269.725 424.673 238.777H463.358Z" fill="#B28B67"/>
<path fill-rule="evenodd" clip-rule="evenodd" d="M538.297 365.598C540.676 366.389 542.316 367.139 543.214 367.848C544.308 368.71 545.75 370.139 547.542 372.136C546.478 373.328 536.914 384.042 518.852 404.278C515.169 402.796 514.013 401.063 515.385 399.079C516.757 397.094 517.88 395.433 518.754 394.093L525.004 373.566C525.124 373.171 525.563 372.943 525.983 373.056C525.99 373.057 525.997 373.06 526.004 373.062L529.339 374.056C531.653 373.042 533.275 372.015 534.205 370.973C534.96 370.127 535.64 368.671 536.243 366.607L536.243 366.607C536.475 365.815 537.346 365.349 538.189 365.567C538.225 365.576 538.261 365.587 538.297 365.598Z" fill="#191847"/>
<path fill-rule="evenodd" clip-rule="evenodd" d="M394.857 405.14C395.742 407.362 396.185 409.024 396.185 410.127C396.185 411.469 395.947 413.426 395.471 416C393.816 416 378.938 416 350.838 416C349.678 412.395 350.347 410.449 352.846 410.162C355.345 409.875 357.421 409.615 359.074 409.383L379.819 400.69C380.219 400.522 380.687 400.691 380.864 401.066C380.868 401.072 380.87 401.079 380.873 401.085L382.207 404.126C384.52 405.141 386.4 405.648 387.846 405.648C389.022 405.648 390.644 405.202 392.715 404.31L392.715 404.31C393.51 403.967 394.449 404.295 394.813 405.042C394.829 405.074 394.843 405.107 394.857 405.14Z" fill="#191847"/>
<path fill-rule="evenodd" clip-rule="evenodd" d="M429.422 400.644L380.512 395.674L416.76 238.777H460.566L429.422 400.644Z" fill="#191847"/>
<path fill-rule="evenodd" clip-rule="evenodd" d="M527.186 356.528L495.104 392.087C461.313 357.528 441.613 334.979 436.004 324.438C430.394 313.898 425.352 285.344 420.876 238.777H470.194C472.639 279.745 474.287 301.181 475.138 303.088C475.989 304.994 493.338 322.808 527.186 356.528Z" fill="#0A0F75"/>
<path fill-rule="evenodd" clip-rule="evenodd" d="M394.958 221.708L366.896 234.663C359.834 235.248 353.804 236.431 348.805 238.214C347.566 238.948 345.929 240.578 350.42 240.994C354.911 241.41 359.616 242.036 359.962 243.552C360.309 245.067 357.31 246.313 358.188 248.426C358.773 249.834 363.265 247.291 371.662 240.795L398.07 235.326L394.958 221.708ZM490.295 238.118L473.998 235.479C478.358 267.511 480.765 284.523 481.218 286.513C482.237 290.993 477.226 296.727 474.953 299.878C479.851 302.984 480.83 294.651 486.987 298.68C492.607 302.358 496.358 307.955 504.194 305.046C505.157 304.688 506.464 302.957 504.439 301.099C499.395 296.471 492.339 288.664 491.62 286.361C490.64 283.219 490.198 267.138 490.295 238.118Z" fill="#B28B67"/>
<path fill-rule="evenodd" clip-rule="evenodd" d="M456.003 166.522L449.467 164.324C420.674 180.384 403.123 217.497 368.618 232.979L374.39 242.755C428.715 245.41 450.774 200.249 456.003 166.522Z" fill="#FDD45C"/>
<path fill-rule="evenodd" clip-rule="evenodd" d="M470.521 250.611C443.5 246.132 423.624 242.837 410.893 240.727C408.168 240.275 409.372 236.68 410.114 234.888C418.68 214.209 440.759 194.047 446.482 163.537L464.154 163.866C474.366 187.626 474.343 214.792 470.521 250.611Z" fill="#DDE3E9"/>
<path fill-rule="evenodd" clip-rule="evenodd" d="M481.684 188.463C484.308 188.205 486.58 186.966 488.5 184.747C496.777 175.178 495.602 168.96 489.244 165.926C482.886 162.892 476.153 165.854 465.449 164.08C464.867 163.984 464.327 163.929 463.83 163.917L458.392 163.312C433.758 209.726 423.368 241.695 427.224 259.219L474.155 266.998C475.798 273.524 477.502 279.068 479.266 283.63L492.055 285.75C500.086 249.548 496.629 217.119 481.684 188.463Z" fill="#FFDE7D"/>
<path fill-rule="evenodd" clip-rule="evenodd" d="M468.654 240.152C465.011 251.459 461.039 259.446 456.739 264.111L474.155 266.998C472.239 259.386 470.405 250.437 468.654 240.152V240.152Z" fill="black" fill-opacity="0.1"/>
<path fill-rule="evenodd" clip-rule="evenodd" d="M255.052 191.498C257.973 201.567 261.78 224.199 257.895 227.749H233.319C233.316 227.708 233.314 227.668 233.311 227.627C224.202 226.684 217.118 219.46 217.118 210.689V194.043C217.118 184.63 225.275 177 235.338 177H237.033C246.171 177 253.739 183.293 255.052 191.498Z" fill="#191847"/>
<path fill-rule="evenodd" clip-rule="evenodd" d="M226.662 207.51C222.757 203.223 220.114 197.969 220.555 192.081C221.828 175.117 247.074 178.849 251.985 187.411C256.896 195.973 256.312 217.691 249.965 219.221C247.434 219.831 242.042 218.336 236.554 215.242L239.999 238.036H219.66L226.662 207.51Z" fill="#D4A181"/>
<path fill-rule="evenodd" clip-rule="evenodd" d="M232.16 204.645C233.097 214.06 232.722 224.812 229.929 227.365H205.352C203.983 205.111 217.217 213.729 217.217 192.777C218.042 192.022 218.822 191.276 219.593 190.633L219.566 190.016C223.821 181.867 229.221 177.793 235.763 177.793C245.577 177.793 248.674 182.064 251.312 185.69C249.339 192.02 241.686 192.958 234.885 196.904C234.084 196.295 233.061 195.93 231.948 195.93C229.374 195.93 227.287 197.881 227.287 200.289C227.287 202.697 229.374 204.649 231.948 204.649C232.019 204.649 232.09 204.647 232.16 204.645Z" fill="#191847"/>
<path fill-rule="evenodd" clip-rule="evenodd" d="M186.954 381.581C207.284 386.9 224.825 389.559 239.575 389.559C254.325 389.559 268.026 385.464 280.677 377.273C260.783 371.814 244.398 369.084 231.524 369.084C218.651 369.084 203.794 373.25 186.954 381.581Z" fill="#0A0F75"/>
<path fill-rule="evenodd" clip-rule="evenodd" d="M257.175 397.226C256.979 396.95 256.813 396.65 256.682 396.325C253.964 389.603 210.437 317.087 206.1 303.829H255.106C258.403 313.909 273.243 377.167 275.331 389.788C281.92 409.696 295.487 474.172 297.219 478.639C299.041 483.337 288.79 488.232 286.058 482.456C281.711 473.264 271.354 447.831 266.743 432.302C262.419 417.743 258.899 404.645 257.175 397.226Z" fill="#BA8B72"/>
<path fill-rule="evenodd" clip-rule="evenodd" d="M217.081 406.079C197.181 410.784 124.391 419.289 119.396 420.623C114.258 421.995 109.752 412.088 116.104 409.942C126.21 406.527 154.057 398.638 170.941 395.418C184.521 392.828 196.913 390.715 205.233 389.478C204.528 367.618 201.306 315.159 203.418 303.829H246.779C244.754 314.694 227.635 393.97 224.453 401.906C223.443 404.739 220.43 405.991 217.081 406.079Z" fill="#D4A181"/>
<path fill-rule="evenodd" clip-rule="evenodd" d="M114.498 407.366C112.223 406.941 110.576 406.84 109.557 407.06C108.319 407.329 106.571 407.954 104.314 408.936C104.732 410.56 108.488 425.161 115.582 452.739C119.204 453.156 120.832 452.11 120.466 449.6C120.101 447.09 119.816 445 119.613 443.332L122.404 421.232C122.457 420.807 122.184 420.382 121.792 420.282C121.786 420.281 121.779 420.279 121.772 420.277L118.628 419.577C117.107 417.51 116.164 415.767 115.798 414.347C115.502 413.194 115.504 411.512 115.805 409.301L115.805 409.301C115.921 408.453 115.381 407.597 114.599 407.389C114.565 407.38 114.532 407.372 114.498 407.366Z" fill="#080059"/>
<path fill-rule="evenodd" clip-rule="evenodd" d="M282.947 481.708C281.999 484.075 281.525 485.846 281.525 487.021C281.525 488.451 281.779 490.537 282.289 493.279C284.061 493.279 299.994 493.279 330.087 493.279C331.329 489.438 330.612 487.365 327.936 487.058C325.26 486.752 323.037 486.476 321.267 486.229L299.05 476.965C298.623 476.787 298.122 476.966 297.931 477.366C297.928 477.373 297.925 477.38 297.922 477.387L296.494 480.627C294.016 481.708 292.003 482.249 290.454 482.249C289.196 482.249 287.458 481.773 285.241 480.823L285.241 480.823C284.39 480.458 283.384 480.807 282.993 481.603C282.977 481.637 282.961 481.672 282.947 481.708Z" fill="#080059"/>
<path fill-rule="evenodd" clip-rule="evenodd" d="M203.558 303.829C222.666 298.715 240.745 298.715 257.796 303.829C263.728 329.145 278.143 339.193 280.677 378.007C251.864 391.398 216.27 368.456 186.609 381.516C178.134 363.249 189.999 319.258 203.558 303.829Z" fill="#080059"/>
<path fill-rule="evenodd" clip-rule="evenodd" d="M285.762 272.368L319.223 268.099C325.916 264.616 332.074 262.259 337.696 261.026C339.278 260.983 341.794 261.521 338.045 264.445C334.296 267.368 330.492 270.602 331.16 272.162C331.828 273.723 335.314 273.142 335.892 275.542C336.277 277.142 330.618 277.402 318.916 276.322L291.766 286.39L285.762 272.368ZM180.651 279.612L199.208 279.677C178.86 322.509 168.25 344.935 167.378 346.955C165.417 351.501 169.567 358.424 171.341 362.144C165.562 364.563 166.177 355.604 158.886 358.777C152.232 361.673 147.169 366.92 139.48 362.483C138.535 361.937 137.499 359.883 140.002 358.278C146.237 354.278 155.223 347.279 156.437 344.975C158.093 341.834 166.164 320.046 180.651 279.612Z" fill="#D4A181"/>
<path fill-rule="evenodd" clip-rule="evenodd" d="M231.482 224.561L246.011 225.466C249.59 255.747 269.081 274.874 312.721 268.399L318.519 307.395C277.731 312.325 241.959 297.051 234.628 255.696C232.73 244.99 231.232 233.849 231.482 224.561Z" fill="#FF4362"/>
<path fill-rule="evenodd" clip-rule="evenodd" d="M224.313 220.61L246.328 225.326C246.328 260.742 258.389 283.338 264.576 309.377H205.121C204.283 318.375 203.769 327.623 203.501 337.121H158.983C169.071 286.916 190.363 248.075 222.86 220.597H224.302L224.313 220.61Z" fill="#FF4362"/>
<path fill-rule="evenodd" clip-rule="evenodd" d="M214.501 258.851C212.969 280.921 213.87 297.763 217.204 309.377H205.12C206.78 291.553 209.707 274.711 214.501 258.851V258.851Z" fill="black" fill-opacity="0.1"/>
<path d="M77 106C106.271 106 130 82.2711 130 53C130 23.7289 106.271 0 77 0C47.7289 0 24 23.7289 24 53C24 82.2711 47.7289 106 77 106Z" fill="#DB979F"/>
<path d="M77 14C78.6569 14 80 12.6569 80 11C80 9.34315 78.6569 8 77 8C75.3432 8 74 9.34315 74 11C74 12.6569 75.3432 14 77 14Z" fill="white"/>
<path d="M35 56C36.6569 56 38 54.6569 38 53C38 51.3431 36.6569 50 35 50C33.3432 50 32 51.3431 32 53C32 54.6569 33.3432 56 35 56Z" fill="white"/>
<path d="M119 56C120.657 56 122 54.6569 122 53C122 51.3431 120.657 50 119 50C117.343 50 116 51.3431 116 53C116 54.6569 117.343 56 119 56Z" fill="white"/>
<path d="M77 98C78.6569 98 80 96.6569 80 95C80 93.3431 78.6569 92 77 92C75.3432 92 74 93.3431 74 95C74 96.6569 75.3432 98 77 98Z" fill="white"/>
<path fill-rule="evenodd" clip-rule="evenodd" d="M77 17L79 52H75L77 17Z" fill="white"/>
<path fill-rule="evenodd" clip-rule="evenodd" d="M94.6985 70.6985L76.3137 55.1421L79.1421 52.3137L94.6985 70.6985Z" fill="white"/>
<path d="M77 57C79.2092 57 81 55.2091 81 53C81 50.7909 79.2092 49 77 49C74.7909 49 73 50.7909 73 53C73 55.2091 74.7909 57 77 57Z" fill="white"/>
<path opacity="0.5" fill-rule="evenodd" clip-rule="evenodd" d="M90.0697 284.321C92.1935 281.293 96.1345 273.602 99.1237 272.52C101.049 271.823 100.488 279.033 100.511 280.408C100.604 285.726 100.086 291.011 99.4468 296.285C98.2949 305.796 94.5281 314.266 89.3617 322.361C86.7032 326.527 83.5849 330.743 79.266 333.342C77.278 334.539 74.8859 334.739 72.9227 335.77C70.6362 336.971 71.8814 336 70.8509 338.383C69.4199 341.691 68.9622 345.959 68.3001 349.488C65.2601 365.692 57.9001 451.348 59.1761 467.83C59.2894 469.291 57.2523 469.641 57.1506 467.857C56.6101 458.401 61.2872 392.915 63.6469 371.5C66.0066 350.084 68.3944 331.165 70.7888 323.756C73.6934 314.767 78.9394 303.957 83.3063 295.574C85.3347 291.68 87.5457 287.92 90.0697 284.321Z" fill="#6C001F"/>
<path opacity="0.5" fill-rule="evenodd" clip-rule="evenodd" d="M105.833 389.355C111.359 385.298 117.341 392.955 112.34 397.013C109.576 399.256 106.686 398.458 105.059 396.589C104.002 397.877 103.014 399.223 102.064 400.36C99.1697 403.825 96.4343 407.372 93.82 411.002C88.3893 418.544 83.7353 426.512 78.8692 434.334C74.067 442.054 69.3032 449.814 64.9505 457.729C61.2632 464.436 56.3485 472.325 55.086 479.677C57.0015 464.085 64.2697 449.097 72.9248 435.351C81.5096 421.718 91.3615 406.829 104.654 396.07C103.301 394.08 103.263 391.24 105.833 389.355Z" fill="#6C001F"/>
<path opacity="0.5" fill-rule="evenodd" clip-rule="evenodd" d="M0.9669 351.327C4.05942 351.932 9.11257 358.928 11.6617 361.593C14.6912 364.761 17.4397 368.137 20.0305 371.674C25.608 379.288 30.596 387.383 34.8376 395.825C41.7524 409.587 47.2921 423.714 51.3125 438.7C53.7735 447.874 55.3669 457.382 56.3112 466.823C56.4896 468.604 58.3564 482.332 55.6664 482.702C53.247 483.035 53.9943 472.278 53.8776 470.815C52.5582 454.306 48.6057 438.244 43.1079 422.684C41.9104 419.295 40.7978 415.143 38.8827 412.093C37.5036 409.896 38.8728 410.662 36.4492 409.83C34.3681 409.116 31.997 409.29 29.8659 408.416C25.2363 406.517 21.5293 402.832 18.2799 399.124C11.9652 391.92 6.96107 384.125 4.35264 374.893C2.90566 369.774 1.57596 364.625 0.83806 359.348C0.647178 357.984 -1.02497 350.938 0.9669 351.327Z" fill="#6C001F"/>
<path opacity="0.5" fill-rule="evenodd" clip-rule="evenodd" d="M13.1708 234.932C24.8197 255.134 34.3923 277.325 40.5734 299.802C44.3184 313.42 46.9373 327.395 49.5395 341.268C53.5685 362.75 57.3795 384.229 58.4635 406.092C59.5541 428.082 61.7108 453.444 54.5103 474.624C58.107 453.121 54.6827 430.233 54.0764 408.596C53.7867 398.267 52.9471 388.039 51.8457 377.771C50.7769 367.81 49.0308 357.896 47.4048 348.014C46.6127 343.201 45.7809 338.395 44.9339 333.592C44.6811 332.159 44.5743 327.906 43.6653 326.927C42.7503 325.942 38.0823 325.54 36.6167 324.817C33.6656 323.361 30.8897 321.292 28.4329 319.107C23.7233 314.917 19.6261 309.442 16.3923 304.045C8.91014 291.558 5.91877 276.319 6.06996 261.857C6.09901 259.049 10.6146 228.814 8.80109 228.397C8.91028 228.269 9.01356 228.137 9.11095 228C10.484 230.299 11.8313 232.613 13.1708 234.932Z" fill="#6C001F"/>
<path opacity="0.5" fill-rule="evenodd" clip-rule="evenodd" d="M138.901 307.793C139.08 307.533 140.25 305.73 139.661 305.845C140.861 305.611 138.012 307.834 141 306.47C139.581 307.81 140.4 309.551 140.419 311.354C140.45 314.283 139.96 317.187 139.408 320.052C138.537 324.582 137.239 328.986 135.354 333.199C131.247 342.38 124.273 351.218 115.993 356.958C111.906 359.792 107.9 360.757 103.238 362.061C100.294 362.885 100.06 364.409 98.4971 367.266C95.2431 373.217 92.0471 379.147 89.1773 385.299C85.7507 392.645 82.4242 400 79.2864 407.475C68.7157 432.656 60.1122 458.744 55.5938 485.742C55.4832 469.832 59.1637 453.446 63.8063 438.281C67.1882 427.232 71.5908 416.582 76.2865 406.039C77.4244 403.485 79.1488 400.199 79.632 397.379C79.9703 395.404 78.9359 393.503 78.4623 391.422C76.6158 383.317 76.748 374.237 78.3694 366.089C80.1572 357.104 85.3274 352.934 94.0734 351.661C97.2719 351.195 101.337 351.366 104.27 350.002C107.466 348.517 108.784 343.635 110.601 340.502C115.481 332.084 121.28 324.011 127.939 316.918C129.782 314.954 131.765 313.142 133.868 311.463C135.195 310.403 137.997 309.098 138.901 307.793Z" fill="#6C001F"/>
<path fill-rule="evenodd" clip-rule="evenodd" d="M40.8301 468.559H71.8689C73.2644 468.559 74.3957 469.69 74.3957 471.086C74.3957 471.209 74.3867 471.333 74.3687 471.455L71.9697 487.722C71.2384 492.681 66.983 496.355 61.9703 496.355H50.7287C45.716 496.355 41.4606 492.681 40.7293 487.722L38.3303 471.455C38.1267 470.074 39.0808 468.79 40.4614 468.586C40.5835 468.568 40.7067 468.559 40.8301 468.559Z" fill="#FF4362"/>
</svg>
